<?xml version="1.0" encoding="utf-8"?>
<!-- Generator: Adobe Illustrator 20.1.0, SVG Export Plug-In . SVG Version: 6.00 Build 0)  -->
<svg version="1.1" id="Layer_1" xmlns="http://www.w3.org/2000/svg" xmlns:xlink="http://www.w3.org/1999/xlink" x="0px" y="0px"
	 viewBox="0 0 322.1 276.1" style="enable-background:new 0 0 322.1 276.1;" xml:space="preserve">
<g>
	<path d="M315.7,229.6l-41.5-41.5c9.9-14.9,15.2-32.3,15.2-50.3c0-50.2-40.9-91.1-91.1-91.1s-91.1,40.9-91.1,91.1
		s40.9,91.1,91.1,91.1c17.9,0,35.1-5.2,49.9-14.9l41.5,41.5c3.5,3.5,8.1,5.4,13,5.4c4.9,0,9.5-1.9,13-5.4c3.5-3.5,5.4-8.1,5.4-13
		C321.1,237.7,319.2,233.1,315.7,229.6z M252.7,137.9c0,30-24.4,54.4-54.4,54.4s-54.4-24.4-54.4-54.4c0-30,24.4-54.4,54.4-54.4
		S252.7,107.9,252.7,137.9z"/>
	<path d="M27.5,81.7l-8.3,21l21.1,13l14.5-18.2c1.6,0.2,3.3,0.3,5,0.3c1.7,0,3.3-0.1,4.9-0.3l14.4,17.8l21.7-12L92,81.8
		c1.8-2.4,3.4-5.1,4.6-7.9l22.7-3.4l0.6-24.8l-22.9-3.3c-1.2-2.9-2.8-5.7-4.6-8.2l8.4-21.1L79.6,0L65.3,17.9
		c-1.8-0.3-3.7-0.4-5.6-0.4c-1.6,0-3.3,0.1-4.9,0.3L40.7,0.4l-21.7,12l8.6,21.1c-2,2.6-3.6,5.4-4.9,8.4L0.6,45.3L0,70.1l22.7,3.3
		C24,76.4,25.6,79.2,27.5,81.7z M59.7,37.5c11.1,0,20.2,9.1,20.2,20.2c0,11.1-9.1,20.2-20.2,20.2c-11.1,0-20.2-9.1-20.2-20.2
		C39.5,46.6,48.6,37.5,59.7,37.5z"/>
	<path d="M92.3,194.5l8.4-21.1l-21.1-13l-14.3,17.9c-1.8-0.3-3.7-0.4-5.6-0.4c-1.6,0-3.3,0.1-4.9,0.3l-14.1-17.4l-21.7,12l8.6,21.1
		c-2,2.6-3.6,5.4-4.9,8.4l-22.1,3.4L0,230.4l22.7,3.3c1.3,3,2.9,5.8,4.8,8.3l-8.3,21l21.1,13l14.5-18.2c1.6,0.2,3.3,0.3,5,0.3
		c1.7,0,3.3-0.1,4.9-0.3l14.4,17.8l21.7-12L92,242.1c1.8-2.4,3.4-5.1,4.6-7.9l22.7-3.4l0.6-24.8l-22.9-3.3
		C95.7,199.8,94.1,197,92.3,194.5z M59.7,238.3c-11.1,0-20.2-9.1-20.2-20.2c0-11.1,9.1-20.2,20.2-20.2c11.1,0,20.2,9.1,20.2,20.2
		C80,229.2,70.9,238.3,59.7,238.3z"/>
</g>
</svg>
