<?xml version="1.0" encoding="iso-8859-1"?>
<!-- Generator: Adobe Illustrator 18.0.0, SVG Export Plug-In . SVG Version: 6.00 Build 0)  -->
<!DOCTYPE svg PUBLIC "-//W3C//DTD SVG 1.1//EN" "http://www.w3.org/Graphics/SVG/1.1/DTD/svg11.dtd">
<svg version="1.1" id="Capa_1" xmlns="http://www.w3.org/2000/svg" xmlns:xlink="http://www.w3.org/1999/xlink" x="0px" y="0px"
	 viewBox="0 0 341.893 341.893" style="enable-background:new 0 0 341.893 341.893;" xml:space="preserve">
<g>
	<path d="M324.704,254.36H310.15v-14.554c0-9.479-7.711-17.191-17.188-17.191c-9.477,0-17.187,7.712-17.187,17.191v14.554H261.22
		c-9.477,0-17.187,7.71-17.187,17.186c0,9.478,7.71,17.189,17.187,17.189h14.555v14.556c0,9.477,7.71,17.187,17.187,17.187
		c9.478,0,17.188-7.71,17.188-17.187v-14.556h14.554c9.478,0,17.189-7.711,17.189-17.189
		C341.893,262.07,334.182,254.36,324.704,254.36z"/>
	<path d="M225.001,272.888H27.188V111.809h255.551v93.217c3.244-0.955,6.674-1.472,10.224-1.472c6.127,0,11.899,1.535,16.964,4.23
		V30.478c0-5.006-4.057-9.063-9.063-9.063H9.063C4.057,21.415,0,25.473,0,30.478v260.537c0,5.004,4.057,9.061,9.063,9.061h229.818
		C230.746,293.692,225.404,283.909,225.001,272.888z M264.026,49.892c8.251,0,14.941,6.69,14.941,14.94
		c0,8.251-6.689,14.942-14.941,14.942c-8.253,0-14.941-6.691-14.941-14.942C249.085,56.581,255.773,49.892,264.026,49.892z
		 M221.406,49.892c8.252,0,14.942,6.69,14.942,14.94c0,8.251-6.689,14.942-14.942,14.942c-8.251,0-14.941-6.691-14.941-14.942
		C206.465,56.581,213.155,49.892,221.406,49.892z M30.959,51.088h141.672v27.49H30.959V51.088z"/>
</g>
<g>
</g>
<g>
</g>
<g>
</g>
<g>
</g>
<g>
</g>
<g>
</g>
<g>
</g>
<g>
</g>
<g>
</g>
<g>
</g>
<g>
</g>
<g>
</g>
<g>
</g>
<g>
</g>
<g>
</g>
</svg>
