<?xml version="1.0" encoding="UTF-8" standalone="no"?>
<!-- Generator: Adobe Illustrator 18.1.1, SVG Export Plug-In . SVG Version: 6.00 Build 0)  -->

<svg
   xmlns:dc="http://purl.org/dc/elements/1.1/"
   xmlns:cc="http://creativecommons.org/ns#"
   xmlns:rdf="http://www.w3.org/1999/02/22-rdf-syntax-ns#"
   xmlns:svg="http://www.w3.org/2000/svg"
   xmlns="http://www.w3.org/2000/svg"
   xmlns:sodipodi="http://sodipodi.sourceforge.net/DTD/sodipodi-0.dtd"
   xmlns:inkscape="http://www.inkscape.org/namespaces/inkscape"
   version="1.1"
   id="Capa_1"
   x="0px"
   y="0px"
   viewBox="0 0 30 30"
   style="enable-background:new 0 0 30 30;"
   xml:space="preserve"
   inkscape:version="0.91 r13725"
   sodipodi:docname="editing3.svg"><metadata
   id="metadata43"><rdf:RDF><cc:Work
       rdf:about=""><dc:format>image/svg+xml</dc:format><dc:type
         rdf:resource="http://purl.org/dc/dcmitype/StillImage" /></cc:Work></rdf:RDF></metadata><defs
   id="defs41" /><sodipodi:namedview
   pagecolor="#ffffff"
   bordercolor="#666666"
   borderopacity="1"
   objecttolerance="10"
   gridtolerance="10"
   guidetolerance="10"
   inkscape:pageopacity="0"
   inkscape:pageshadow="2"
   inkscape:window-width="1118"
   inkscape:window-height="817"
   id="namedview39"
   showgrid="false"
   inkscape:zoom="7.8666667"
   inkscape:cx="-4.3855932"
   inkscape:cy="15"
   inkscape:window-x="0"
   inkscape:window-y="0"
   inkscape:window-maximized="0"
   inkscape:current-layer="g3" />
<g
   id="g3">
	<path
   style="fill:#010002;fill-opacity:0.54189944"
   d="M28,15.35V10h-2V8h2V0H0v8h2v2H0v8h2v2H0v8h15.35c1.545,1.248,3.51,1.999,5.65,2   c4.971-0.002,8.998-4.029,9-9C29.999,18.857,29.248,16.895,28,15.35z M12.059,20H4v-2h8.522C12.297,18.639,12.135,19.307,12.059,20   z M24,10H4V8h20V10z M2,4h4v2H2V4z M2,14h4v2H2V14z M6,26H2v-2h4V26z M21,27.883c-3.801-0.009-6.876-3.084-6.885-6.883   c0.009-3.801,3.084-6.876,6.885-6.885c3.799,0.009,6.874,3.084,6.883,6.885C27.874,24.799,24.799,27.874,21,27.883z"
   id="path5" />
	<path
   style="fill:#010002;fill-opacity:0.54189944"
   d="M20,25h-3v-3L20,25z M26,19l-5,5l-3-3.001l5-5L26,19z"
   id="path7" />
</g>
<g
   id="g9">
</g>
<g
   id="g11">
</g>
<g
   id="g13">
</g>
<g
   id="g15">
</g>
<g
   id="g17">
</g>
<g
   id="g19">
</g>
<g
   id="g21">
</g>
<g
   id="g23">
</g>
<g
   id="g25">
</g>
<g
   id="g27">
</g>
<g
   id="g29">
</g>
<g
   id="g31">
</g>
<g
   id="g33">
</g>
<g
   id="g35">
</g>
<g
   id="g37">
</g>
</svg>